<svg t="1600931087981" class="icon" viewBox="0 0 1028 1024" xmlns="http://www.w3.org/2000/svg" p-id="3289" width="64" height="64"><path d="M852.982272 693.76c-46.08 23.04-58.88 43.52-48.64 94.72 10.24 53.76 23.04 110.08 33.28 163.84 2.56 10.24.0 23.04.0 33.28-15.36-2.56-35.84.0-48.64-7.68-30.72-17.92-58.88-43.52-92.16-64-58.88-35.84-117.76-69.12-186.88-76.8-12.8-2.56-25.6.0-35.84 5.12-79.36 43.52-158.72 87.04-235.52 133.12-17.92 10.24-33.28 12.8-46.08.0-7.68-7.68-5.12-23.04-5.12-35.84 15.36-92.16 33.28-186.88 51.2-279.04 2.56-17.92.0-30.72-15.36-43.52-71.68-64-140.8-125.44-209.92-192-7.68-5.12-15.36-20.48-12.8-25.6 2.56-7.68 15.36-15.36 25.6-15.36 94.72-12.8 186.88-25.6 281.6-38.4 17.92-2.56 28.16-10.24 35.84-25.6 51.2-89.6 102.4-179.2 153.6-268.8 5.12-7.68 12.8-12.8 17.92-20.48 7.68 7.68 15.36 12.8 17.92 20.48 43.52 89.6 87.04 181.76 128 273.92 7.68 17.92 20.48 28.16 40.96 28.16 99.84 7.68 197.12 17.92 296.96 28.16 7.68.0 15.36 7.68 23.04 10.24-5.12 7.68-7.68 17.92-12.8 23.04-66.56 66.56-135.68 133.12-202.24 199.68-15.36 15.36-25.6 40.96-43.52 69.12-92.16-7.68-194.56-15.36-304.64-23.04 104.96-74.24 204.8-145.92 309.76-222.72-186.88-48.64-366.08-38.4-545.28-2.56.0 2.56.0 7.68.0 10.24 122.88 7.68 245.76 17.92 368.64 25.6 2.56 2.56 2.56 5.12 5.12 7.68-7.68 7.68-15.36 15.36-25.6 20.48-89.6 58.88-179.2 115.2-266.24 174.08-10.24 7.68-20.48 15.36-30.72 25.6C474.102272 734.72 663.542272 711.68 852.982272 693.76z" p-id="3290"/></svg>